<svg width="142" height="46" viewBox="0 0 142 46" fill="none" xmlns="http://www.w3.org/2000/svg">
<rect x="105.159" y="0.09375" width="2.57422" height="2.67578" fill="#FF2E4D"/>
<rect x="138.421" y="33.2539" width="2.57422" height="2.67578" fill="#FF2E4D"/>
<g filter="url(#filter0_d_235_64)">
<rect x="2.70996" y="1.90625" width="137" height="40" rx="10" fill="url(#paint0_linear_235_64)" shape-rendering="crispEdges"/>
<path d="M23.938 16.6742V27.9062H21.202V16.6742H23.938ZM35.9687 27.9062H33.2327L28.6567 20.9782V27.9062H25.9207V16.6742H28.6567L33.2327 23.6342V16.6742H35.9687V27.9062ZM48.496 16.6742L44.512 27.9062H41.088L37.104 16.6742H40.016L42.8 25.1542L45.6 16.6742H48.496ZM52.3755 18.8663V21.1382H56.0395V23.2502H52.3755V25.7142H56.5195V27.9062H49.6395V16.6742H56.5195V18.8663H52.3755ZM62.3597 28.0183C61.5384 28.0183 60.8024 27.8849 60.1517 27.6182C59.501 27.3516 58.9784 26.9569 58.5837 26.4342C58.1997 25.9116 57.997 25.2822 57.9757 24.5462H60.8877C60.9304 24.9622 61.0744 25.2822 61.3197 25.5062C61.565 25.7196 61.885 25.8262 62.2797 25.8262C62.685 25.8262 63.005 25.7356 63.2397 25.5543C63.4744 25.3622 63.5917 25.1009 63.5917 24.7702C63.5917 24.4929 63.4957 24.2636 63.3037 24.0822C63.1224 23.9009 62.893 23.7516 62.6157 23.6342C62.349 23.5169 61.965 23.3836 61.4637 23.2342C60.7384 23.0102 60.1464 22.7862 59.6877 22.5622C59.229 22.3382 58.8344 22.0076 58.5037 21.5702C58.173 21.1329 58.0077 20.5622 58.0077 19.8582C58.0077 18.8129 58.3864 17.9969 59.1437 17.4102C59.901 16.8129 60.8877 16.5142 62.1037 16.5142C63.341 16.5142 64.3384 16.8129 65.0957 17.4102C65.853 17.9969 66.2584 18.8182 66.3117 19.8742H63.3517C63.3304 19.5116 63.197 19.2289 62.9517 19.0262C62.7064 18.8129 62.3917 18.7062 62.0077 18.7062C61.677 18.7062 61.4104 18.7969 61.2077 18.9782C61.005 19.1489 60.9037 19.3996 60.9037 19.7302C60.9037 20.0929 61.0744 20.3756 61.4157 20.5782C61.757 20.7809 62.2904 20.9996 63.0157 21.2342C63.741 21.4796 64.3277 21.7142 64.7757 21.9382C65.2344 22.1622 65.629 22.4876 65.9597 22.9142C66.2904 23.3409 66.4557 23.8902 66.4557 24.5622C66.4557 25.2022 66.2904 25.7836 65.9597 26.3062C65.6397 26.8289 65.1704 27.2449 64.5517 27.5542C63.933 27.8636 63.2024 28.0183 62.3597 28.0183ZM76.2195 16.6742V18.8663H73.2435V27.9062H70.5075V18.8663H67.5315V16.6742H76.2195ZM91.0312 27.9062H88.2952L83.7192 20.9782V27.9062H80.9832V16.6742H83.7192L88.2952 23.6342V16.6742H91.0312V27.9062ZM98.3265 28.0183C97.2705 28.0183 96.2998 27.7729 95.4145 27.2822C94.5398 26.7916 93.8411 26.1089 93.3185 25.2342C92.8065 24.3489 92.5505 23.3569 92.5505 22.2582C92.5505 21.1596 92.8065 20.1729 93.3185 19.2982C93.8411 18.4236 94.5398 17.7409 95.4145 17.2502C96.2998 16.7596 97.2705 16.5142 98.3265 16.5142C99.3825 16.5142 100.348 16.7596 101.222 17.2502C102.108 17.7409 102.801 18.4236 103.302 19.2982C103.814 20.1729 104.07 21.1596 104.07 22.2582C104.07 23.3569 103.814 24.3489 103.302 25.2342C102.79 26.1089 102.097 26.7916 101.222 27.2822C100.348 27.7729 99.3825 28.0183 98.3265 28.0183ZM98.3265 25.5222C99.2225 25.5222 99.9371 25.2236 100.47 24.6262C101.014 24.0289 101.286 23.2396 101.286 22.2582C101.286 21.2662 101.014 20.4769 100.47 19.8902C99.9371 19.2929 99.2225 18.9942 98.3265 18.9942C97.4198 18.9942 96.6945 19.2876 96.1505 19.8742C95.6171 20.4609 95.3505 21.2556 95.3505 22.2582C95.3505 23.2502 95.6171 24.0449 96.1505 24.6422C96.6945 25.2289 97.4198 25.5222 98.3265 25.5222ZM121.049 16.6742L118.121 27.9062H114.809L113.017 20.5142L111.161 27.9062H107.849L105.001 16.6742H107.929L109.545 24.8502L111.545 16.6742H114.553L116.473 24.8502L118.105 16.6742H121.049Z" fill="#33B2B7"/>
</g>
<path d="M105.159 0.09375H133.995C137.861 0.09375 140.995 3.22776 140.995 7.09375V35.9297L105.159 0.09375Z" fill="url(#paint1_linear_235_64)"/>
<path d="M121.31 2.69599C121.582 2.42409 121.885 2.24194 122.221 2.14954C122.561 2.05714 122.896 2.05714 123.226 2.14954C123.562 2.24194 123.861 2.42013 124.125 2.68411C124.434 2.99298 124.626 3.34276 124.699 3.73346C124.773 4.12416 124.717 4.50562 124.529 4.87784L123.892 4.24031C123.96 4.04496 123.97 3.85621 123.919 3.67406C123.872 3.49455 123.773 3.32956 123.622 3.17909C123.461 3.01806 123.279 2.91246 123.076 2.8623C122.878 2.81215 122.675 2.82007 122.466 2.88606C122.26 2.9547 122.065 3.08141 121.88 3.2662C121.698 3.44835 121.571 3.6437 121.5 3.85225C121.434 4.0608 121.425 4.26539 121.472 4.46602C121.525 4.66665 121.632 4.84748 121.793 5.00851C121.943 5.15899 122.108 5.25798 122.288 5.3055C122.473 5.35302 122.663 5.34246 122.858 5.27382L123.496 5.91135C123.121 6.10142 122.738 6.1595 122.347 6.08558C121.962 6.01166 121.613 5.81895 121.302 5.50745C121.038 5.24346 120.858 4.94516 120.763 4.61253C120.674 4.27991 120.674 3.94465 120.763 3.60675C120.856 3.27148 121.038 2.9679 121.31 2.69599ZM124.092 7.37084L125.003 8.2816L124.563 8.72113L123.098 7.25601L125.862 4.49207L126.416 5.04644L124.092 7.37084ZM126.171 10.3842C125.912 10.1255 125.735 9.82718 125.64 9.48927C125.545 9.15137 125.541 8.81215 125.628 8.47161C125.718 8.12842 125.899 7.82088 126.171 7.54897C126.44 7.27971 126.745 7.10152 127.085 7.0144C127.429 6.92464 127.769 6.92728 128.107 7.02232C128.445 7.11735 128.743 7.29423 129.002 7.55293C129.263 7.81428 129.44 8.11258 129.533 8.44785C129.628 8.78575 129.629 9.12497 129.537 9.46551C129.449 9.80606 129.271 10.111 129.002 10.3802C128.73 10.6521 128.423 10.833 128.079 10.9227C127.741 11.0125 127.404 11.0098 127.066 10.9148C126.728 10.8198 126.429 10.6429 126.171 10.3842ZM126.666 9.88921C126.832 10.0555 127.016 10.1651 127.216 10.2179C127.419 10.268 127.627 10.2588 127.838 10.1902C128.049 10.1215 128.247 9.99481 128.432 9.81002C128.617 9.62523 128.742 9.42856 128.808 9.22001C128.877 9.00882 128.885 8.80291 128.832 8.60228C128.779 8.40165 128.669 8.21818 128.503 8.05187C128.337 7.88556 128.152 7.77468 127.949 7.71924C127.748 7.66645 127.542 7.67437 127.331 7.743C127.122 7.809 126.926 7.93439 126.741 8.11918C126.556 8.30397 126.429 8.50196 126.361 8.71315C126.292 8.92434 126.283 9.13157 126.333 9.33484C126.389 9.53811 126.499 9.7229 126.666 9.88921ZM128.951 13.1646C128.758 12.9719 128.617 12.7646 128.527 12.5429C128.44 12.3238 128.414 12.1073 128.448 11.8935C128.483 11.6797 128.583 11.4869 128.749 11.3154L129.343 11.9093C129.238 12.0308 129.187 12.1601 129.193 12.2974C129.201 12.4373 129.268 12.5706 129.395 12.6973C129.524 12.8267 129.656 12.898 129.791 12.9112C129.928 12.9217 130.047 12.8768 130.147 12.7765C130.229 12.6947 130.271 12.6023 130.274 12.4993C130.276 12.3964 130.254 12.2921 130.206 12.1865C130.164 12.0809 130.096 11.9436 130.001 11.7747C129.874 11.5424 129.779 11.3444 129.715 11.1807C129.657 11.0171 129.639 10.8428 129.66 10.658C129.686 10.4732 129.787 10.2937 129.961 10.1195C130.125 9.95583 130.308 9.85419 130.511 9.8146C130.715 9.775 130.922 9.79744 131.133 9.88191C131.347 9.96375 131.549 10.0997 131.739 10.2898C132.024 10.5749 132.185 10.8758 132.222 11.1926C132.264 11.5094 132.17 11.8011 131.941 12.0677L131.331 11.4579C131.421 11.3576 131.458 11.2388 131.442 11.1015C131.431 10.9643 131.364 10.8336 131.24 10.7095C131.132 10.6013 131.017 10.5419 130.895 10.5313C130.777 10.5234 130.664 10.5722 130.559 10.6778C130.485 10.7517 130.447 10.8375 130.444 10.9352C130.447 11.0329 130.468 11.1332 130.507 11.2362C130.552 11.3391 130.621 11.4764 130.713 11.648C130.84 11.8803 130.934 12.0796 130.994 12.2459C131.055 12.4122 131.074 12.5891 131.05 12.7765C131.026 12.964 130.928 13.1435 130.757 13.3151C130.609 13.4629 130.433 13.5619 130.23 13.612C130.027 13.6622 129.813 13.6516 129.589 13.5804C129.367 13.5064 129.154 13.3679 128.951 13.1646ZM133.756 12.386L130.992 15.1499L130.438 14.5956L133.202 11.8316L133.756 12.386ZM133.904 18.0616L133.349 17.5073L133.991 14.3553L132.094 16.252L131.54 15.6976L134.308 12.9297L134.862 13.4841L134.216 16.6401L136.117 14.7394L136.672 15.2937L133.904 18.0616ZM138.308 18.6016C138.361 18.4221 138.362 18.2465 138.312 18.0749C138.262 17.9033 138.163 17.7436 138.015 17.5958C137.852 17.4321 137.67 17.3239 137.469 17.2711C137.268 17.2183 137.064 17.2249 136.855 17.2909C136.647 17.3569 136.453 17.4796 136.273 17.6591C136.088 17.8439 135.963 18.0406 135.897 18.2491C135.833 18.4603 135.83 18.6676 135.885 18.8708C135.94 19.0741 136.054 19.2615 136.225 19.4331C136.437 19.6443 136.665 19.7618 136.911 19.7856C137.159 19.8067 137.404 19.738 137.647 19.5796L136.697 18.6293L137.12 18.2056L138.617 19.7024L138.134 20.1855C137.904 20.3412 137.647 20.4402 137.362 20.4825C137.077 20.5247 136.788 20.4996 136.495 20.4072C136.207 20.3148 135.944 20.1499 135.707 19.9123C135.44 19.6456 135.258 19.3447 135.16 19.0094C135.068 18.6742 135.067 18.3376 135.156 17.9997C135.249 17.6644 135.431 17.3608 135.703 17.0889C135.975 16.817 136.278 16.6349 136.614 16.5425C136.954 16.4501 137.291 16.4514 137.623 16.5464C137.961 16.6415 138.262 16.821 138.526 17.085C138.838 17.3965 139.032 17.7436 139.108 18.1264C139.187 18.5065 139.133 18.8774 138.946 19.2391L138.308 18.6016ZM120.394 11.6788C120.202 11.4861 120.06 11.2789 119.971 11.0571C119.884 10.838 119.857 10.6216 119.891 10.4077C119.926 10.1939 120.026 10.0012 120.192 9.82961L120.786 10.4236C120.681 10.545 120.631 10.6744 120.636 10.8116C120.644 10.9515 120.711 11.0849 120.838 11.2116C120.967 11.3409 121.099 11.4122 121.234 11.4254C121.371 11.436 121.49 11.3911 121.59 11.2908C121.672 11.2089 121.714 11.1165 121.717 11.0136C121.72 10.9106 121.697 10.8064 121.65 10.7008C121.607 10.5952 121.539 10.4579 121.444 10.2889C121.317 10.0566 121.222 9.85864 121.159 9.69497C121.101 9.5313 121.082 9.35707 121.103 9.17228C121.13 8.98749 121.23 8.80798 121.404 8.63375C121.568 8.47008 121.751 8.36844 121.955 8.32884C122.158 8.28924 122.365 8.31168 122.576 8.39616C122.79 8.478 122.992 8.61395 123.182 8.80402C123.467 9.08912 123.628 9.39007 123.665 9.70685C123.707 10.0236 123.614 10.3153 123.384 10.582L122.774 9.97216C122.864 9.87184 122.901 9.75305 122.885 9.61578C122.874 9.4785 122.807 9.34783 122.683 9.22376C122.575 9.11552 122.46 9.05613 122.339 9.04557C122.22 9.03765 122.108 9.08648 122.002 9.19208C121.928 9.26599 121.89 9.35179 121.887 9.44947C121.89 9.54714 121.911 9.64746 121.951 9.75041C121.995 9.85336 122.064 9.99064 122.156 10.1622C122.283 10.3945 122.377 10.5938 122.438 10.7602C122.498 10.9265 122.517 11.1033 122.493 11.2908C122.469 11.4782 122.372 11.6577 122.2 11.8293C122.052 11.9771 121.877 12.0761 121.673 12.1263C121.47 12.1764 121.256 12.1659 121.032 12.0946C120.81 12.0207 120.598 11.8821 120.394 11.6788ZM123.136 14.4205C122.877 14.1618 122.7 13.8635 122.605 13.5256C122.51 13.1877 122.506 12.8485 122.594 12.5079C122.683 12.1647 122.864 11.8572 123.136 11.5853C123.405 11.316 123.71 11.1378 124.051 11.0507C124.394 10.961 124.734 10.9636 125.072 11.0586C125.41 11.1537 125.709 11.3305 125.967 11.5892C126.229 11.8506 126.405 12.1489 126.498 12.4842C126.593 12.8221 126.594 13.1613 126.502 13.5018C126.415 13.8424 126.237 14.1473 125.967 14.4165C125.695 14.6884 125.388 14.8693 125.045 14.959C124.707 15.0488 124.369 15.0461 124.031 14.9511C123.693 14.8561 123.395 14.6792 123.136 14.4205ZM123.631 13.9255C123.797 14.0918 123.981 14.2014 124.181 14.2542C124.385 14.3043 124.592 14.2951 124.803 14.2265C125.014 14.1578 125.212 14.0311 125.397 13.8463C125.582 13.6615 125.707 13.4649 125.773 13.2563C125.842 13.0451 125.85 12.8392 125.797 12.6386C125.744 12.438 125.635 12.2545 125.468 12.0882C125.302 11.9219 125.117 11.811 124.914 11.7556C124.713 11.7028 124.507 11.7107 124.296 11.7793C124.088 11.8453 123.891 11.9707 123.706 12.1555C123.521 12.3403 123.395 12.5383 123.326 12.7495C123.257 12.9607 123.248 13.1679 123.298 13.3712C123.354 13.5744 123.465 13.7592 123.631 13.9255ZM126.245 17.5296C125.986 17.2708 125.809 16.9725 125.714 16.6346C125.619 16.2967 125.615 15.9575 125.703 15.617C125.792 15.2738 125.973 14.9662 126.245 14.6943C126.514 14.4251 126.819 14.2469 127.16 14.1598C127.503 14.07 127.844 14.0727 128.181 14.1677C128.519 14.2627 128.818 14.4396 129.076 14.6983C129.338 14.9596 129.515 15.258 129.607 15.5932C129.702 15.9311 129.703 16.2703 129.611 16.6109C129.524 16.9514 129.346 17.2563 129.076 17.5256C128.804 17.7975 128.497 17.9783 128.154 18.0681C127.816 18.1578 127.478 18.1552 127.14 18.0602C126.802 17.9651 126.504 17.7883 126.245 17.5296ZM126.74 17.0346C126.906 17.2009 127.09 17.3104 127.29 17.3632C127.494 17.4134 127.701 17.4042 127.912 17.3355C128.123 17.2669 128.321 17.1402 128.506 16.9554C128.691 16.7706 128.816 16.5739 128.882 16.3654C128.951 16.1542 128.959 15.9483 128.906 15.7476C128.853 15.547 128.744 15.3635 128.577 15.1972C128.411 15.0309 128.226 14.92 128.023 14.8646C127.822 14.8118 127.616 14.8197 127.405 14.8884C127.197 14.9544 127 15.0798 126.815 15.2646C126.63 15.4493 126.504 15.6473 126.435 15.8585C126.367 16.0697 126.357 16.2769 126.407 16.4802C126.463 16.6835 126.574 16.8683 126.74 17.0346ZM130.463 21.6919L129.909 21.1376L130.55 17.9856L128.653 19.8823L128.099 19.3279L130.867 16.56L131.421 17.1144L130.776 20.2704L132.676 18.3697L133.231 18.924L130.463 21.6919Z" fill="#E21010"/>
<defs>
<filter id="filter0_d_235_64" x="0.709961" y="1.90625" width="141" height="44" filterUnits="userSpaceOnUse" color-interpolation-filters="sRGB">
<feFlood flood-opacity="0" result="BackgroundImageFix"/>
<feColorMatrix in="SourceAlpha" type="matrix" values="0 0 0 0 0 0 0 0 0 0 0 0 0 0 0 0 0 0 127 0" result="hardAlpha"/>
<feOffset dy="2"/>
<feGaussianBlur stdDeviation="1"/>
<feComposite in2="hardAlpha" operator="out"/>
<feColorMatrix type="matrix" values="0 0 0 0 0 0 0 0 0 0 0 0 0 0 0 0 0 0 0.63 0"/>
<feBlend mode="normal" in2="BackgroundImageFix" result="effect1_dropShadow_235_64"/>
<feBlend mode="normal" in="SourceGraphic" in2="effect1_dropShadow_235_64" result="shape"/>
</filter>
<linearGradient id="paint0_linear_235_64" x1="84.9998" y1="41.9062" x2="84.9998" y2="1.90625" gradientUnits="userSpaceOnUse">
<stop offset="0.385417"/>
<stop offset="0.828125" stop-color="#282828"/>
</linearGradient>
<linearGradient id="paint1_linear_235_64" x1="116.365" y1="-6.61826" x2="158.913" y2="35.9297" gradientUnits="userSpaceOnUse">
<stop stop-color="#FC97C1"/>
<stop offset="0.179316" stop-color="#FEBAD6"/>
<stop offset="0.452428" stop-color="#FC97C1"/>
</linearGradient>
</defs>
</svg>
