<?xml version="1.0" standalone="no"?>
<!DOCTYPE svg PUBLIC "-//W3C//DTD SVG 20010904//EN"
 "http://www.w3.org/TR/2001/REC-SVG-20010904/DTD/svg10.dtd">
<svg version="1.0" xmlns="http://www.w3.org/2000/svg"
 width="114.000000pt" height="114.000000pt" viewBox="0 0 114.000000 114.000000"
 preserveAspectRatio="xMidYMid meet">
<metadata>
Created by potrace 1.14, written by Peter Selinger 2001-2017
</metadata>
<g transform="translate(0.000000,114.000000) scale(0.100000,-0.100000)"
fill="#000000" stroke="none">
<path d="M535 1124 c-84 -14 -142 -36 -213 -81 -29 -18 -63 -33 -75 -33 -35 0
-59 -23 -59 -55 0 -15 -18 -55 -38 -89 -114 -183 -110 -435 10 -611 16 -23 27
-53 27 -72 0 -43 19 -63 61 -63 22 0 53 -11 81 -29 175 -112 418 -113 593 -2
29 18 59 29 79 29 33 -1 69 29 69 57 0 19 -84 121 -154 188 -71 67 -171 137
-197 137 -10 0 -34 -14 -52 -30 -19 -17 -39 -30 -44 -30 -5 0 -29 21 -53 46
-65 69 -64 99 3 167 l53 55 38 -34 c21 -19 46 -34 56 -34 10 0 56 28 104 61
79 56 115 90 186 176 14 16 31 32 37 34 6 2 14 16 18 31 8 33 -23 68 -60 68
-14 0 -49 16 -78 35 -113 75 -253 103 -392 79z m218 -50 c60 -15 133 -48 171
-77 19 -14 17 -16 -27 -35 -57 -25 -122 -70 -204 -139 l-63 -53 -87 70 c-49
39 -121 87 -160 107 -40 20 -70 39 -68 43 9 15 154 81 196 89 72 14 177 12
242 -5z m-354 -182 c45 -28 191 -143 191 -150 0 -4 -22 -31 -49 -59 -65 -70
-92 -71 -141 -5 -75 102 -130 186 -130 199 0 8 8 25 17 37 17 22 19 22 52 9
19 -8 46 -22 60 -31z m571 5 c0 -27 -216 -207 -250 -207 -6 0 -22 11 -35 24
l-24 24 37 34 c62 56 146 117 198 143 45 23 50 24 62 8 6 -9 12 -21 12 -26z
m-637 -200 c32 -42 63 -79 68 -83 12 -7 12 -81 0 -88 -18 -12 -119 -152 -153
-213 l-34 -62 -33 53 c-47 78 -71 166 -71 261 0 115 26 200 97 319 3 4 20 -18
37 -50 17 -33 57 -94 89 -137z m207 -242 l53 -54 -24 -21 c-63 -53 -185 -143
-220 -161 -38 -19 -40 -19 -64 -2 -30 22 -27 36 33 128 68 107 128 174 151
168 10 -2 42 -29 71 -58z m254 -44 c29 -21 82 -69 119 -106 56 -57 64 -70 55
-85 -9 -14 -17 -16 -37 -9 -32 13 -139 85 -214 144 l-59 47 23 24 c31 33 51
30 113 -15z m-76 -110 c48 -38 118 -86 156 -107 79 -43 79 -43 -28 -95 -155
-74 -356 -63 -494 29 l-42 29 42 19 c48 21 173 108 231 160 20 19 39 34 42 34
3 0 44 -31 93 -69z"/>
</g>
</svg>
